<svg xmlns="http://www.w3.org/2000/svg" viewBox="0 0 380 100" role="img" aria-label="Age and Dates"><path d="M42 83H28Q13 83 13 68V35Q13 20 28 20H70Q85 20 85 35" fill="none" stroke="#ffffff" stroke-width="9"/><path d="M31 11V20M65 11V20" stroke="#ffffff" stroke-width="9" stroke-linecap="round"/><path d="M85 58C85 76 72 88 51 88" fill="none" stroke="#ffffff" stroke-width="9" stroke-linecap="round"/><circle cx="85" cy="46" r="6" fill="#ffffff"/><g fill="#ffffff" transform="translate(113 63) scale(0.0185546875 -0.0185546875)"><path transform="translate(0 0)" d="M700 1294 426 551H975ZM586 1493H815L1384 0H1174L1038 383H365L229 0H16Z"/><path transform="translate(1401 0)" d="M930 573Q930 773 847.5 883.0Q765 993 616 993Q468 993 385.5 883.0Q303 773 303 573Q303 374 385.5 264.0Q468 154 616 154Q765 154 847.5 264.0Q930 374 930 573ZM1114 139Q1114 -147 987.0 -286.5Q860 -426 598 -426Q501 -426 415.0 -411.5Q329 -397 248 -367V-188Q329 -232 408.0 -253.0Q487 -274 569 -274Q750 -274 840.0 -179.5Q930 -85 930 106V197Q873 98 784.0 49.0Q695 0 571 0Q365 0 239.0 157.0Q113 314 113 573Q113 833 239.0 990.0Q365 1147 571 1147Q695 1147 784.0 1098.0Q873 1049 930 950V1120H1114Z"/><path transform="translate(2701 0)" d="M1151 606V516H305Q317 326 419.5 226.5Q522 127 705 127Q811 127 910.5 153.0Q1010 179 1108 231V57Q1009 15 905.0 -7.0Q801 -29 694 -29Q426 -29 269.5 127.0Q113 283 113 549Q113 824 261.5 985.5Q410 1147 662 1147Q888 1147 1019.5 1001.5Q1151 856 1151 606ZM967 660Q965 811 882.5 901.0Q800 991 664 991Q510 991 417.5 904.0Q325 817 311 659Z"/><path transform="translate(3961 0)" d=""/><path transform="translate(4612 0)" d="M498 803Q407 722 364.5 641.5Q322 561 322 473Q322 327 428.0 230.0Q534 133 694 133Q789 133 872.0 164.5Q955 196 1028 260ZM639 915 1147 395Q1206 484 1239.0 585.5Q1272 687 1278 801H1464Q1452 669 1400.0 540.0Q1348 411 1255 285L1534 0H1282L1139 147Q1035 58 921.0 14.5Q807 -29 676 -29Q435 -29 282.0 108.5Q129 246 129 461Q129 589 196.0 701.5Q263 814 397 913Q349 976 324.0 1038.5Q299 1101 299 1161Q299 1323 410.0 1421.5Q521 1520 705 1520Q788 1520 870.5 1502.0Q953 1484 1038 1448V1266Q951 1313 872.0 1337.5Q793 1362 725 1362Q620 1362 554.5 1306.5Q489 1251 489 1163Q489 1112 518.5 1060.5Q548 1009 639 915Z"/><path transform="translate(6209 0)" d=""/><path transform="translate(6860 0)" d="M403 1327V166H647Q956 166 1099.5 306.0Q1243 446 1243 748Q1243 1048 1099.5 1187.5Q956 1327 647 1327ZM201 1493H616Q1050 1493 1253.0 1312.5Q1456 1132 1456 748Q1456 362 1252.0 181.0Q1048 0 616 0H201Z"/><path transform="translate(8437 0)" d="M702 563Q479 563 393.0 512.0Q307 461 307 338Q307 240 371.5 182.5Q436 125 547 125Q700 125 792.5 233.5Q885 342 885 522V563ZM1069 639V0H885V170Q822 68 728.0 19.5Q634 -29 498 -29Q326 -29 224.5 67.5Q123 164 123 326Q123 515 249.5 611.0Q376 707 627 707H885V725Q885 852 801.5 921.5Q718 991 567 991Q471 991 380.0 968.0Q289 945 205 899V1069Q306 1108 401.0 1127.5Q496 1147 586 1147Q829 1147 949.0 1021.0Q1069 895 1069 639Z"/><path transform="translate(9692 0)" d="M375 1438V1120H754V977H375V369Q375 232 412.5 193.0Q450 154 565 154H754V0H565Q352 0 271.0 79.5Q190 159 190 369V977H55V1120H190V1438Z"/><path transform="translate(10495 0)" d="M1151 606V516H305Q317 326 419.5 226.5Q522 127 705 127Q811 127 910.5 153.0Q1010 179 1108 231V57Q1009 15 905.0 -7.0Q801 -29 694 -29Q426 -29 269.5 127.0Q113 283 113 549Q113 824 261.5 985.5Q410 1147 662 1147Q888 1147 1019.5 1001.5Q1151 856 1151 606ZM967 660Q965 811 882.5 901.0Q800 991 664 991Q510 991 417.5 904.0Q325 817 311 659Z"/><path transform="translate(11755 0)" d="M907 1087V913Q829 953 745.0 973.0Q661 993 571 993Q434 993 365.5 951.0Q297 909 297 825Q297 761 346.0 724.5Q395 688 543 655L606 641Q802 599 884.5 522.5Q967 446 967 309Q967 153 843.5 62.0Q720 -29 504 -29Q414 -29 316.5 -11.5Q219 6 111 41V231Q213 178 312.0 151.5Q411 125 508 125Q638 125 708.0 169.5Q778 214 778 295Q778 370 727.5 410.0Q677 450 506 487L442 502Q271 538 195.0 612.5Q119 687 119 817Q119 975 231.0 1061.0Q343 1147 549 1147Q651 1147 741.0 1132.0Q831 1117 907 1087Z"/></g></svg>